Coordinates
version=1
nRows=8
nColumns=46
inDegrees=yes

Units are S.I. units (second, meters, Newtons, ...)
Angles are in degrees.

endheader
time	pelvis_tilt	pelvis_list	pelvis_rotation	pelvis_tx	pelvis_ty	pelvis_tz	bb_angle	bb_tx	bb_ty	bb_tz	hip_flexion_r	hip_adduction_r	hip_rotation_r	knee_angle_r	knee_angle_r_beta	ankle_angle_r	subtalar_angle_r	mtp_angle_r	crank_angle_r	hip_flexion_l	hip_adduction_l	hip_rotation_l	knee_angle_l	knee_angle_l_beta	ankle_angle_l	subtalar_angle_l	mtp_angle_l	crank_angle_l	lumbar_extension	lumbar_bending	lumbar_rotation	arm_flex_r	arm_add_r	arm_rot_r	elbow_flex_r	pro_sup_r	wrist_flex_r	wrist_dev_r	arm_flex_l	arm_add_l	arm_rot_l	elbow_flex_l	pro_sup_l	wrist_flex_l	wrist_dev_l
      2.50500000	    -16.05555469	     -3.73645885	     -2.78113527	      0.07147173	      1.12600057	     -0.26483414	      0.00000000	      0.50000000	      0.00000000	      0.25000000	     86.58459595	      4.18973131	      5.16459021	    111.62193064	      1.94817021	      2.16344338	    -10.66981209	      0.00000000	      0.00000000	     38.24918677	    -10.33997945	     -5.96834347	     25.54011485	      0.44575910	    -17.09076222	      1.57068669	      0.00000000	      0.00000000	    -63.41389417	     -1.17262987	      7.97831572	     89.15835173	    -34.16731445	     33.80153441	     72.14195892	     46.66276240	      0.00000000	      0.00000000	     88.61922743	    -26.47834283	     35.40160398	     75.26984530	     35.04626991	      0.00000000	      0.00000000
      2.51000000	    -16.32059831	     -3.97130996	     -3.25852524	      0.07044468	      1.12595251	     -0.26469639	      0.00000000	      0.50000000	      0.00000000	      0.25000000	     87.07149425	      4.82065731	      5.03307174	    111.13788799	      1.93972207	      2.91231635	    -10.92899480	      0.00000000	      0.00000000	     38.62471528	    -10.71427222	     -5.64061638	     26.58332316	      0.46396652	    -16.88422243	      0.37534295	      0.00000000	      0.00000000	    -63.34838077	     -1.06621592	      8.40027789	     89.23515231	    -33.77975321	     33.45129702	     72.65218206	     46.48207784	      0.00000000	      0.00000000	     88.61738529	    -27.00967724	     35.30129969	     75.52351684	     35.27004632	      0.00000000	      0.00000000
      2.51500000	    -16.42338061	     -4.10867237	     -3.85233197	      0.06954604	      1.12616903	     -0.26453496	      0.00000000	      0.50000000	      0.00000000	      0.25000000	     87.31028889	      5.53051477	      5.01895177	    110.58197184	      1.93001950	      3.78089254	    -11.07050744	      0.00000000	      0.00000000	     38.84313342	    -11.07578073	     -5.56141481	     27.75777081	      0.48446449	    -16.65439788	     -0.98457213	      0.00000000	      0.00000000	    -63.41910007	     -1.11050217	      8.81735696	     89.32414559	    -33.47046079	     33.32202237	     73.01924093	     46.42879315	      0.00000000	      0.00000000	     88.65186637	    -27.40143941	     35.16610920	     75.57975801	     35.34138143	      0.00000000	      0.00000000
      2.52000000	    -16.75771532	     -4.44201289	     -4.39012726	      0.06840874	      1.12590231	     -0.26444293	      0.00000000	      0.50000000	      0.00000000	      0.25000000	     87.71538583	      6.24034554	      4.83577162	    109.91298449	      1.91834347	      4.76135612	    -11.01869032	      0.00000000	      0.00000000	     39.53514900	    -11.57490978	     -5.18301129	     29.25000062	      0.51050882	    -16.48990545	     -2.54347510	      0.00000000	      0.00000000	    -63.33175200	     -0.95930989	      9.32814097	     89.37817797	    -33.06615046	     33.00134490	     73.67769312	     46.28709456	      0.00000000	      0.00000000	     88.61920246	    -28.05039785	     35.05171988	     75.94900256	     35.53614024	      0.00000000	      0.00000000
      2.52500000	    -16.99855772	     -4.63063271	     -4.91297873	      0.06738744	      1.12562236	     -0.26443367	      0.00000000	      0.50000000	      0.00000000	      0.25000000	     87.95779718	      6.85106427	      4.77293123	    109.21453975	      1.90615331	      5.88243522	    -11.06123778	      0.00000000	      0.00000000	     40.19149526	    -11.91067860	     -4.82024891	     30.88763999	      0.53909102	    -16.38663085	     -4.16971446	      0.00000000	      0.00000000	    -63.33002287	     -0.90460604	      9.61635204	     89.43151398	    -32.67184739	     32.86277807	     74.40534479	     45.91344850	      0.00000000	      0.00000000	     88.57577527	    -28.86865124	     34.80849351	     76.49788420	     36.59119679	      0.00000000	      0.00000000
      2.53000000	    -17.22040640	     -4.82021089	     -5.43056192	      0.06631882	      1.12529796	     -0.26452094	      0.00000000	      0.50000000	      0.00000000	      0.25000000	     88.07675910	      7.47039964	      4.75567212	    108.40723912	      1.89206326	      7.12817816	    -11.04703320	      0.00000000	      0.00000000	     40.91949325	    -12.21887649	     -4.39371028	     32.63876756	      0.56965396	    -16.38081854	     -5.85450764	      0.00000000	      0.00000000	    -63.32539852	     -0.81855233	      9.92279052	     89.47831312	    -32.16189463	     32.69249088	     74.89685727	     45.57443387	      0.00000000	      0.00000000	     88.56748520	    -29.61943214	     34.73579586	     76.87280425	     36.80639745	      0.00000000	      0.00000000
      2.53500000	    -17.40618257	     -4.94552340	     -5.93704201	      0.06528479	      1.12492272	     -0.26469060	      0.00000000	      0.50000000	      0.00000000	      0.25000000	     88.08007040	      8.03777397	      4.78793258	    107.53230591	      1.87679279	      8.40636294	    -11.08989208	      0.00000000	      0.00000000	     41.66548635	    -12.43520162	     -3.94163791	     34.40737941	      0.60052206	    -16.56940336	     -7.50112799	      0.00000000	      0.00000000	    -63.35103969	     -0.76547001	     10.12714044	     89.52268913	    -31.59923778	     32.51359352	     75.34667776	     45.26433700	      0.00000000	      0.00000000	     88.53445734	    -30.36398221	     34.38113308	     77.06380067	     38.55056368	      0.00000000	      0.00000000
      2.54000000	    -17.58674782	     -5.11268982	     -6.36062270	      0.06430243	      1.12424307	     -0.26502469	      0.00000000	      0.50000000	      0.00000000	      0.25000000	     87.98493048	      8.49974316	      4.77185246	    106.59720827	      1.86047226	      9.90559334	    -10.98680237	      0.00000000	      0.00000000	     42.56044811	    -12.63180129	     -3.36487801	     36.34670002	      0.63436959	    -16.92449273	     -9.12810097	      0.00000000	      0.00000000	    -63.36017231	     -0.62972884	     10.39074229	     89.55203702	    -31.19544095	     32.36133875	     76.04398426	     44.69420385	      0.00000000	      0.00000000	     88.55320260	    -31.24705781	     34.60943662	     77.51726598	     38.87323410	      0.00000000	      0.00000000
